<svg id="svg" version="1.1" xmlns="http://www.w3.org/2000/svg" xmlns:xlink="http://www.w3.org/1999/xlink" width="400" height="300" viewBox="0, 0, 400,300"><g id="svgg"><path id="path0" d="M250.263 2.551 C 250.263 2.963,250.117 3.301,249.940 3.301 C 249.747 3.301,249.649 3.821,249.696 4.588 C 249.740 5.297,249.662 6.060,249.523 6.285 C 249.338 6.583,249.384 6.629,249.691 6.454 C 250.032 6.259,250.041 6.291,249.737 6.618 C 249.531 6.840,249.362 7.400,249.362 7.862 C 249.362 8.324,249.240 8.702,249.091 8.702 C 248.942 8.702,248.746 9.344,248.656 10.128 C 248.283 13.360,247.748 16.204,247.513 16.204 C 247.375 16.204,247.264 16.440,247.266 16.729 C 247.270 17.178,247.313 17.189,247.562 16.804 C 247.810 16.420,247.853 16.430,247.857 16.879 C 247.860 17.168,247.727 17.404,247.562 17.404 C 247.397 17.404,247.262 17.742,247.262 18.155 C 247.262 18.567,247.138 18.905,246.986 18.905 C 246.834 18.905,246.615 19.782,246.501 20.855 C 246.386 21.928,246.172 22.806,246.027 22.806 C 245.881 22.806,245.761 23.270,245.761 23.838 C 245.761 24.406,245.633 24.950,245.475 25.048 C 245.318 25.145,245.098 26.031,244.986 27.016 C 244.875 28.001,244.666 28.807,244.522 28.807 C 244.379 28.807,244.261 29.280,244.261 29.857 C 244.261 30.435,244.136 30.908,243.983 30.908 C 243.829 30.908,243.611 31.650,243.498 32.558 C 243.384 33.466,243.172 34.209,243.026 34.209 C 242.880 34.209,242.761 34.535,242.761 34.934 C 242.761 35.333,242.628 35.704,242.466 35.759 C 242.304 35.814,242.120 36.442,242.056 37.155 C 241.992 37.868,241.787 38.603,241.600 38.790 C 241.413 38.977,241.260 39.346,241.260 39.610 C 241.260 39.874,241.131 40.220,240.972 40.378 C 240.813 40.537,240.617 41.203,240.536 41.859 C 240.454 42.515,240.247 43.099,240.074 43.156 C 239.901 43.214,239.760 43.504,239.760 43.802 C 239.760 44.099,239.558 44.729,239.312 45.202 C 239.065 45.675,238.863 46.365,238.862 46.737 C 238.861 47.108,238.725 47.412,238.560 47.412 C 238.395 47.412,238.260 47.749,238.260 48.162 C 238.260 48.575,238.126 48.912,237.963 48.912 C 237.800 48.912,237.580 49.452,237.475 50.113 C 237.369 50.773,237.165 51.313,237.021 51.313 C 236.877 51.313,236.759 51.515,236.759 51.763 C 236.759 52.011,236.632 52.213,236.478 52.213 C 236.323 52.213,236.105 52.821,235.993 53.563 C 235.882 54.306,235.671 54.914,235.525 54.914 C 235.379 54.914,235.259 55.116,235.259 55.364 C 235.259 55.611,235.135 55.814,234.983 55.814 C 234.831 55.814,234.611 56.253,234.495 56.789 C 234.378 57.326,234.192 57.832,234.080 57.914 C 233.749 58.159,232.858 60.216,232.858 60.736 C 232.858 60.999,232.737 61.215,232.588 61.215 C 232.439 61.215,232.068 61.822,231.763 62.565 C 231.457 63.307,231.107 63.914,230.983 63.915 C 230.859 63.915,230.758 64.119,230.758 64.366 C 230.758 64.614,230.623 64.816,230.458 64.816 C 230.293 64.816,230.174 64.917,230.193 65.041 C 230.213 65.165,230.202 65.334,230.170 65.416 C 230.138 65.499,230.062 65.834,230.001 66.161 C 229.940 66.488,229.748 66.803,229.574 66.861 C 229.400 66.919,229.257 67.147,229.257 67.367 C 229.257 67.587,229.089 67.835,228.882 67.918 C 228.609 68.028,228.621 68.076,228.926 68.093 C 229.194 68.108,229.059 68.382,228.551 68.853 C 228.114 69.258,227.757 69.730,227.757 69.903 C 227.757 70.076,227.622 70.218,227.457 70.218 C 227.292 70.218,227.157 70.492,227.157 70.827 C 227.157 71.162,226.954 71.514,226.707 71.609 C 226.459 71.704,226.257 72.038,226.257 72.350 C 226.257 72.663,226.114 72.918,225.939 72.918 C 225.764 72.918,225.692 73.033,225.778 73.173 C 225.865 73.313,225.670 73.712,225.346 74.061 C 225.022 74.409,224.756 74.834,224.756 75.006 C 224.756 75.178,224.607 75.319,224.424 75.319 C 224.241 75.319,224.172 75.528,224.271 75.785 C 224.373 76.052,224.323 76.172,224.153 76.067 C 223.989 75.966,223.856 76.044,223.856 76.241 C 223.856 76.438,223.605 76.817,223.299 77.084 C 222.992 77.351,222.646 77.873,222.528 78.245 C 222.411 78.616,222.175 78.920,222.003 78.920 C 221.832 78.920,221.769 79.122,221.864 79.370 C 221.967 79.638,221.867 79.820,221.616 79.820 C 221.385 79.820,221.103 80.112,220.990 80.470 C 220.876 80.827,220.462 81.441,220.069 81.834 C 219.676 82.227,219.355 82.712,219.355 82.912 C 219.355 83.113,219.085 83.445,218.755 83.651 C 218.425 83.857,218.155 84.209,218.155 84.432 C 218.155 84.655,217.817 85.091,217.404 85.401 C 216.992 85.710,216.654 86.133,216.654 86.340 C 216.654 86.547,216.249 87.104,215.754 87.577 C 215.259 88.050,214.854 88.585,214.854 88.765 C 214.854 88.946,214.381 89.552,213.803 90.113 C 213.226 90.674,212.753 91.226,212.753 91.340 C 212.753 91.453,212.078 92.250,211.253 93.110 C 210.428 93.970,209.753 94.764,209.753 94.874 C 209.753 94.984,208.611 96.242,207.216 97.669 C 205.821 99.095,204.599 100.517,204.500 100.829 C 204.401 101.140,204.058 101.478,203.736 101.580 C 203.415 101.682,203.071 102.090,202.971 102.486 C 202.872 102.882,202.703 103.194,202.596 103.180 C 201.995 103.102,201.671 103.289,201.505 103.811 C 201.403 104.132,201.070 104.475,200.765 104.572 C 200.459 104.668,200.125 105.086,200.021 105.499 C 199.917 105.913,199.712 106.177,199.565 106.086 C 199.418 105.995,199.119 106.120,198.899 106.363 C 197.621 107.779,196.986 108.327,196.622 108.327 C 196.328 108.327,195.649 106.573,195.649 105.812 C 195.649 105.526,195.538 105.359,195.403 105.443 C 195.268 105.526,195.216 105.197,195.287 104.710 C 195.378 104.093,195.291 103.826,195.000 103.826 C 194.694 103.826,194.613 103.505,194.697 102.626 C 194.762 101.946,194.681 101.425,194.510 101.425 C 194.185 101.425,193.860 99.345,193.868 97.325 C 193.871 96.637,193.733 95.988,193.561 95.882 C 193.389 95.775,193.248 94.778,193.248 93.666 C 193.248 92.553,193.118 91.513,192.959 91.353 C 192.799 91.194,192.651 89.344,192.629 87.242 C 192.608 85.140,192.502 83.421,192.394 83.421 C 192.286 83.421,192.198 76.906,192.198 68.942 C 192.198 60.979,192.076 52.877,191.927 50.938 L 191.656 47.412 190.334 47.412 C 189.607 47.412,189.083 47.297,189.169 47.157 C 189.256 47.017,188.917 46.891,188.416 46.877 C 187.915 46.862,187.326 46.702,187.107 46.520 C 186.887 46.338,186.359 46.252,185.932 46.329 C 185.505 46.407,185.078 46.344,184.983 46.191 C 184.888 46.037,184.211 45.911,183.478 45.911 C 182.745 45.911,182.146 45.776,182.146 45.611 C 182.146 45.446,181.605 45.311,180.945 45.311 C 180.285 45.311,179.745 45.178,179.745 45.015 C 179.745 44.851,179.441 44.726,179.070 44.735 C 178.698 44.745,177.851 44.662,177.187 44.551 C 175.902 44.337,175.899 44.342,175.767 46.437 C 175.755 46.643,175.631 46.812,175.494 46.812 C 175.356 46.812,175.244 47.325,175.244 47.952 C 175.244 48.579,175.117 49.221,174.962 49.377 C 174.806 49.534,174.599 51.345,174.501 53.402 C 174.403 55.459,174.202 57.217,174.054 57.308 C 173.422 57.699,172.838 99.250,173.459 99.635 C 173.626 99.738,173.756 101.727,173.762 104.283 C 173.768 106.741,173.886 108.892,174.024 109.064 C 174.275 109.377,174.760 120.673,174.669 124.081 C 174.607 126.417,174.433 126.932,173.706 126.932 C 173.377 126.932,173.190 127.065,173.291 127.228 C 173.397 127.400,173.274 127.448,173.000 127.343 C 172.721 127.236,172.312 127.406,172.009 127.753 C 171.725 128.080,171.155 128.452,170.743 128.582 C 170.330 128.712,169.790 129.049,169.542 129.332 C 169.295 129.615,168.765 129.950,168.365 130.076 C 167.965 130.203,167.379 130.547,167.063 130.841 C 165.684 132.127,164.799 131.786,164.679 129.922 C 164.632 129.185,164.492 128.507,164.368 128.415 C 164.136 128.243,163.854 125.543,163.861 123.556 C 163.864 122.937,163.725 122.431,163.553 122.431 C 163.379 122.431,163.241 121.777,163.241 120.955 C 163.241 120.144,163.120 119.435,162.972 119.380 C 162.824 119.325,162.609 118.132,162.494 116.729 C 162.379 115.326,162.162 114.050,162.013 113.893 C 161.863 113.737,161.740 113.107,161.740 112.493 C 161.740 111.880,161.609 111.333,161.448 111.278 C 161.287 111.223,161.068 110.098,160.961 108.777 C 160.854 107.457,160.649 106.332,160.504 106.277 C 160.359 106.222,160.240 105.648,160.240 105.001 C 160.240 104.355,160.121 103.826,159.975 103.826 C 159.830 103.826,159.616 102.813,159.500 101.575 C 159.384 100.338,159.165 99.325,159.014 99.325 C 158.863 99.325,158.740 98.860,158.740 98.292 C 158.740 97.724,158.622 97.187,158.479 97.099 C 158.336 97.010,158.124 96.100,158.008 95.076 C 157.892 94.052,157.619 92.960,157.401 92.649 C 157.184 92.339,157.074 91.823,157.157 91.503 C 157.241 91.184,157.159 90.923,156.974 90.923 C 156.790 90.923,156.639 90.450,156.639 89.872 C 156.639 89.295,156.523 88.822,156.381 88.822 C 156.239 88.822,156.184 88.500,156.259 88.107 C 156.334 87.714,156.248 87.301,156.067 87.189 C 155.887 87.078,155.739 86.589,155.739 86.104 C 155.739 85.618,155.619 85.221,155.473 85.221 C 155.327 85.221,155.115 84.479,155.002 83.571 C 154.888 82.663,154.670 81.920,154.517 81.920 C 154.364 81.920,154.239 81.459,154.239 80.895 C 154.239 80.331,154.096 79.822,153.921 79.764 C 153.746 79.706,153.534 79.053,153.450 78.314 C 153.367 77.574,153.172 76.924,153.018 76.869 C 152.864 76.814,152.738 76.454,152.738 76.069 C 152.738 75.684,152.607 75.324,152.447 75.269 C 152.287 75.214,152.094 74.831,152.019 74.419 C 151.944 74.006,151.857 73.601,151.826 73.518 C 151.794 73.436,151.791 73.144,151.818 72.870 C 151.845 72.596,151.725 72.284,151.552 72.177 C 151.379 72.070,151.238 71.713,151.238 71.382 C 151.238 71.052,151.118 70.856,150.972 70.947 C 150.825 71.037,150.715 70.944,150.727 70.739 C 150.774 69.936,150.246 67.817,149.999 67.817 C 149.855 67.817,149.737 67.479,149.737 67.067 C 149.737 66.654,149.602 66.317,149.437 66.317 C 149.272 66.317,149.137 66.049,149.137 65.723 C 149.137 65.065,148.249 62.652,147.919 62.416 C 147.804 62.333,147.614 61.692,147.497 60.990 C 147.380 60.289,147.161 59.715,147.010 59.715 C 146.860 59.715,146.737 59.516,146.737 59.274 C 146.737 59.031,146.476 58.369,146.158 57.802 C 145.839 57.235,145.656 56.694,145.750 56.600 C 146.039 56.311,145.191 55.507,144.827 55.725 C 144.640 55.837,144.671 55.701,144.898 55.421 C 145.129 55.137,145.173 54.914,144.999 54.914 C 144.829 54.914,144.598 54.374,144.486 53.713 C 144.375 53.053,144.160 52.513,144.010 52.513 C 143.859 52.513,143.736 52.243,143.736 51.913 C 143.736 51.583,143.601 51.313,143.436 51.313 C 143.271 51.313,143.136 51.102,143.136 50.845 C 143.136 50.588,143.020 50.449,142.879 50.536 C 142.738 50.623,142.683 50.377,142.757 49.989 C 142.831 49.600,142.744 49.191,142.564 49.080 C 142.383 48.968,142.236 48.615,142.236 48.294 C 142.236 47.974,142.111 47.712,141.959 47.712 C 141.807 47.712,141.594 47.307,141.485 46.812 C 141.377 46.317,141.163 45.911,141.011 45.911 C 140.859 45.911,140.735 45.641,140.735 45.311 C 140.735 44.981,140.616 44.711,140.470 44.711 C 140.213 44.711,139.737 43.589,139.803 43.136 C 139.820 43.012,139.700 42.911,139.535 42.911 C 139.370 42.911,139.235 42.573,139.235 42.161 C 139.235 41.748,139.134 41.410,139.010 41.409 C 138.886 41.409,138.535 40.801,138.230 40.059 C 137.925 39.317,137.564 38.710,137.428 38.710 C 137.293 38.710,137.093 38.305,136.984 37.809 C 136.875 37.314,136.662 36.909,136.510 36.909 C 136.358 36.909,136.234 36.650,136.234 36.334 C 136.234 36.018,136.078 35.707,135.886 35.643 C 135.695 35.579,135.489 35.197,135.428 34.793 C 135.367 34.389,135.185 34.014,135.025 33.958 C 134.865 33.903,134.734 33.600,134.734 33.283 C 134.734 32.967,134.609 32.708,134.457 32.708 C 134.306 32.708,134.092 32.303,133.983 31.808 C 133.875 31.313,133.661 30.908,133.510 30.908 C 133.358 30.908,133.233 30.670,133.233 30.380 C 133.233 30.089,132.967 29.685,132.642 29.482 C 132.295 29.266,132.122 28.925,132.224 28.660 C 132.319 28.411,132.248 28.207,132.065 28.207 C 131.882 28.207,131.733 28.005,131.733 27.757 C 131.733 27.509,131.613 27.307,131.465 27.307 C 131.318 27.307,131.121 27.000,131.027 26.626 C 130.933 26.251,130.571 25.639,130.222 25.264 C 129.874 24.890,129.524 24.228,129.445 23.792 C 129.366 23.356,129.038 22.771,128.717 22.492 C 128.395 22.213,128.132 21.832,128.132 21.645 C 128.132 21.458,127.989 21.305,127.814 21.305 C 127.639 21.305,127.584 21.163,127.692 20.989 C 127.799 20.816,127.614 20.436,127.279 20.146 C 126.945 19.856,126.578 19.247,126.464 18.791 C 126.350 18.335,126.003 17.804,125.694 17.611 C 125.384 17.418,125.131 17.014,125.131 16.714 C 125.131 16.374,124.999 16.250,124.780 16.386 C 124.549 16.528,124.490 16.443,124.608 16.136 C 124.707 15.880,124.543 15.408,124.246 15.089 C 123.948 14.769,123.611 14.214,123.497 13.855 C 123.384 13.497,123.164 13.203,123.011 13.203 C 122.857 13.203,122.731 13.001,122.731 12.753 C 122.731 12.506,122.598 12.303,122.436 12.303 C 122.274 12.303,122.057 11.965,121.954 11.553 C 121.850 11.140,121.645 10.803,121.498 10.803 C 121.351 10.803,121.230 10.600,121.230 10.353 C 121.230 10.105,121.104 9.902,120.950 9.902 C 120.797 9.902,120.575 9.599,120.457 9.227 C 120.340 8.856,120.013 8.350,119.730 8.102 C 119.447 7.854,119.119 7.346,119.001 6.972 C 118.883 6.599,118.661 6.370,118.508 6.465 C 118.355 6.560,118.230 6.359,118.230 6.019 C 118.230 5.679,118.097 5.401,117.935 5.401 C 117.773 5.401,117.552 5.048,117.444 4.617 C 117.192 3.612,114.976 3.709,114.060 4.765 C 113.756 5.115,113.376 5.401,113.214 5.401 C 112.809 5.401,111.603 6.476,111.794 6.668 C 111.879 6.753,111.539 6.904,111.038 7.005 C 110.484 7.116,110.128 7.373,110.128 7.662 C 110.128 7.924,109.991 8.053,109.825 7.951 C 109.463 7.727,108.568 8.543,108.857 8.832 C 108.968 8.943,108.854 8.955,108.604 8.859 C 108.336 8.757,107.854 8.997,107.435 9.444 C 107.043 9.861,106.573 10.203,106.391 10.203 C 106.208 10.203,105.864 10.473,105.626 10.803 C 105.388 11.133,104.949 11.403,104.651 11.403 C 104.352 11.403,104.029 11.605,103.934 11.853 C 103.839 12.101,103.604 12.303,103.411 12.303 C 103.217 12.303,102.624 12.701,102.092 13.186 C 101.560 13.672,101.125 14.000,101.125 13.915 C 101.125 13.830,100.923 13.963,100.675 14.211 C 100.166 14.720,100.071 15.604,100.525 15.604 C 100.690 15.604,100.825 15.874,100.825 16.204 C 100.825 16.534,100.954 16.804,101.111 16.804 C 101.269 16.804,101.634 17.311,101.924 17.929 C 102.213 18.548,102.659 19.234,102.913 19.452 C 103.168 19.671,103.207 19.764,103.001 19.659 C 102.794 19.555,102.626 19.612,102.626 19.787 C 102.626 19.962,102.761 20.105,102.926 20.105 C 103.091 20.105,103.226 20.287,103.226 20.509 C 103.226 20.731,103.487 21.148,103.806 21.437 C 104.125 21.726,104.313 22.152,104.224 22.384 C 104.135 22.616,104.211 22.806,104.394 22.806 C 104.577 22.806,104.726 23.008,104.726 23.256 C 104.726 23.503,104.845 23.706,104.991 23.706 C 105.137 23.706,105.355 24.010,105.476 24.381 C 105.597 24.752,105.732 25.124,105.776 25.206 C 105.821 25.289,105.956 25.660,106.077 26.032 C 106.198 26.403,106.416 26.707,106.562 26.707 C 106.707 26.707,106.827 26.909,106.827 27.157 C 106.827 27.404,106.984 27.607,107.177 27.607 C 107.369 27.607,107.439 27.694,107.333 27.801 C 107.089 28.044,108.337 30.308,108.715 30.308 C 108.867 30.308,108.914 30.510,108.819 30.758 C 108.710 31.040,108.822 31.208,109.119 31.208 C 109.416 31.208,109.527 31.375,109.419 31.658 C 109.324 31.905,109.377 32.108,109.537 32.108 C 109.697 32.108,109.827 32.378,109.827 32.708 C 109.827 33.038,109.977 33.308,110.160 33.308 C 110.342 33.308,110.416 33.507,110.323 33.749 C 110.230 33.991,110.283 34.269,110.441 34.367 C 110.599 34.464,110.728 34.806,110.728 35.126 C 110.728 35.447,110.863 35.709,111.028 35.709 C 111.193 35.709,111.328 35.911,111.328 36.159 C 111.328 36.407,111.469 36.609,111.641 36.609 C 111.813 36.609,111.927 36.778,111.894 36.984 C 111.830 37.378,112.212 38.453,112.506 38.710 C 112.934 39.083,113.432 40.262,113.271 40.522 C 113.173 40.681,113.226 40.810,113.390 40.810 C 113.553 40.810,113.733 41.114,113.790 41.485 C 113.846 41.857,114.044 42.131,114.230 42.096 C 114.427 42.058,114.503 42.277,114.413 42.621 C 114.322 42.970,114.408 43.211,114.626 43.211 C 114.829 43.211,114.916 43.412,114.820 43.661 C 114.725 43.908,114.778 44.111,114.938 44.111 C 115.098 44.111,115.229 44.449,115.229 44.861 C 115.229 45.274,115.364 45.611,115.529 45.611 C 115.694 45.611,115.829 45.874,115.829 46.194 C 115.829 46.514,115.947 46.849,116.090 46.938 C 116.234 47.027,116.440 47.540,116.547 48.078 C 116.806 49.371,117.411 50.713,117.735 50.713 C 117.878 50.713,117.910 51.050,117.806 51.463 C 117.698 51.895,117.747 52.213,117.924 52.213 C 118.092 52.213,118.230 52.551,118.230 52.963 C 118.230 53.376,118.365 53.713,118.530 53.713 C 118.695 53.713,118.830 54.051,118.830 54.464 C 118.830 54.876,118.958 55.214,119.115 55.214 C 119.272 55.214,119.492 56.024,119.604 57.014 C 119.716 58.005,119.925 58.815,120.069 58.815 C 120.212 58.815,120.330 59.152,120.330 59.565 C 120.330 59.977,120.481 60.315,120.665 60.315 C 120.862 60.315,120.940 60.628,120.855 61.072 C 120.776 61.489,120.828 61.902,120.970 61.990 C 121.113 62.079,121.230 62.616,121.230 63.184 C 121.230 63.751,121.365 64.216,121.530 64.216 C 121.695 64.216,121.830 64.613,121.830 65.099 C 121.830 65.584,121.978 66.072,122.159 66.184 C 122.339 66.296,122.437 66.910,122.376 67.549 C 122.315 68.189,122.383 68.751,122.528 68.800 C 122.672 68.848,122.791 69.389,122.791 70.003 C 122.791 70.616,122.912 71.118,123.061 71.118 C 123.209 71.118,123.331 71.793,123.331 72.618 C 123.331 73.443,123.457 74.119,123.612 74.119 C 123.766 74.119,123.836 74.720,123.767 75.455 C 123.699 76.190,123.775 76.873,123.937 76.973 C 124.099 77.073,124.231 77.946,124.231 78.912 C 124.231 79.879,124.362 80.715,124.523 80.770 C 124.689 80.827,124.898 83.329,125.008 86.572 C 125.115 89.707,125.319 92.419,125.462 92.598 C 125.818 93.044,125.846 114.875,125.490 115.324 C 125.336 115.519,125.115 118.040,124.999 120.925 C 124.884 123.810,124.680 126.308,124.545 126.476 C 124.411 126.644,124.288 127.508,124.271 128.396 C 124.254 129.284,124.127 130.161,123.990 130.346 C 123.852 130.531,123.778 131.392,123.826 132.258 C 123.874 133.136,123.784 133.833,123.622 133.833 C 123.462 133.833,123.331 134.509,123.331 135.334 C 123.331 136.159,123.196 136.834,123.031 136.834 C 122.866 136.834,122.731 137.509,122.731 138.335 C 122.731 139.160,122.608 139.835,122.459 139.835 C 122.310 139.835,122.260 140.375,122.349 141.035 C 122.454 141.823,122.393 142.236,122.170 142.236 C 121.969 142.236,121.830 142.773,121.830 143.554 C 121.830 144.461,121.687 144.927,121.370 145.049 C 120.690 145.310,113.895 144.909,113.778 144.601 C 113.723 144.455,113.015 144.336,112.203 144.336 C 111.392 144.336,110.728 144.217,110.728 144.071 C 110.728 143.926,109.715 143.712,108.477 143.596 C 107.239 143.480,106.227 143.261,106.227 143.110 C 106.227 142.959,105.754 142.836,105.176 142.836 C 104.599 142.836,104.126 142.685,104.126 142.501 C 104.126 142.304,103.813 142.225,103.369 142.310 C 102.952 142.390,102.539 142.338,102.451 142.195 C 102.362 142.052,101.885 141.935,101.390 141.935 C 100.866 141.935,100.567 141.810,100.675 141.635 C 100.779 141.468,100.548 141.335,100.153 141.335 C 99.763 141.335,99.317 141.215,99.160 141.067 C 98.681 140.616,96.924 140.346,96.924 140.723 C 96.924 140.946,96.784 140.929,96.506 140.672 C 96.275 140.459,96.148 140.184,96.223 140.060 C 96.298 139.936,96.014 139.835,95.592 139.835 C 95.169 139.835,94.824 139.685,94.824 139.501 C 94.824 139.300,94.464 139.220,93.923 139.299 C 93.428 139.371,93.023 139.319,93.023 139.183 C 93.023 139.046,92.821 138.935,92.573 138.935 C 92.326 138.935,92.123 138.800,92.123 138.635 C 92.123 138.470,91.710 138.335,91.205 138.335 C 90.700 138.335,90.364 138.211,90.458 138.059 C 90.551 137.907,90.223 137.694,89.728 137.586 C 89.234 137.477,88.752 137.264,88.658 137.111 C 88.564 136.959,88.225 136.834,87.904 136.834 C 87.584 136.834,87.322 136.683,87.322 136.499 C 87.322 136.305,87.011 136.224,86.581 136.306 C 86.173 136.384,85.911 136.332,85.998 136.191 C 86.086 136.050,85.946 135.934,85.689 135.934 C 85.432 135.934,85.221 135.790,85.221 135.615 C 85.221 135.436,84.794 135.337,84.246 135.390 C 83.662 135.446,83.301 135.634,83.346 135.859 C 83.387 136.065,83.286 136.234,83.121 136.234 C 82.956 136.234,82.821 136.572,82.821 136.984 C 82.821 137.397,82.686 137.734,82.521 137.734 C 82.356 137.734,82.221 137.997,82.221 138.317 C 82.221 138.637,82.098 138.975,81.949 139.067 C 81.799 139.160,81.747 139.505,81.834 139.835 C 81.920 140.165,81.868 140.435,81.719 140.435 C 81.570 140.435,81.426 140.727,81.399 141.083 C 81.372 141.440,81.242 141.811,81.110 141.908 C 80.608 142.279,80.137 143.431,80.307 143.874 C 80.405 144.128,80.368 144.336,80.225 144.336 C 80.083 144.336,79.790 144.775,79.573 145.311 C 79.357 145.848,79.056 146.518,78.905 146.800 C 78.753 147.082,78.709 147.521,78.807 147.775 C 78.904 148.029,78.834 148.237,78.652 148.237 C 78.469 148.237,78.320 148.499,78.320 148.819 C 78.320 149.140,78.185 149.485,78.020 149.587 C 77.854 149.689,77.719 150.035,77.719 150.355 C 77.719 150.676,77.600 150.938,77.454 150.938 C 77.309 150.938,77.226 151.377,77.272 151.913 C 77.390 153.318,77.397 153.344,77.644 153.281 C 78.111 153.163,79.820 153.698,79.820 153.962 C 79.820 154.114,80.158 154.239,80.570 154.239 C 80.983 154.239,81.320 154.372,81.320 154.535 C 81.320 154.698,81.858 154.918,82.515 155.023 C 83.172 155.128,83.637 155.332,83.548 155.476 C 83.458 155.621,83.598 155.739,83.857 155.739 C 84.117 155.739,84.564 155.867,84.850 156.024 C 86.313 156.823,89.417 158.140,89.840 158.140 C 90.106 158.140,90.323 158.275,90.323 158.440 C 90.323 158.605,90.525 158.740,90.773 158.740 C 91.020 158.740,91.223 158.889,91.223 159.072 C 91.223 159.255,91.425 159.326,91.673 159.231 C 91.920 159.136,92.123 159.189,92.123 159.349 C 92.123 159.509,92.393 159.640,92.723 159.640 C 93.053 159.640,93.323 159.775,93.323 159.940 C 93.323 160.105,93.661 160.240,94.074 160.240 C 94.486 160.240,94.824 160.360,94.824 160.506 C 94.824 160.652,95.431 160.863,96.174 160.975 C 96.917 161.086,97.524 161.304,97.524 161.459 C 97.524 161.614,97.786 161.740,98.107 161.740 C 98.427 161.740,98.770 161.872,98.869 162.032 C 98.968 162.192,99.719 162.412,100.537 162.521 C 101.356 162.629,102.026 162.819,102.026 162.942 C 102.026 163.065,102.378 163.166,102.810 163.166 C 103.241 163.166,103.680 163.301,103.785 163.466 C 103.890 163.631,104.709 163.854,105.606 163.962 C 106.502 164.070,107.439 164.323,107.689 164.524 C 108.048 164.815,108.095 164.813,107.917 164.516 C 107.793 164.310,107.835 164.141,108.009 164.141 C 108.184 164.141,108.327 164.276,108.327 164.441 C 108.327 164.606,108.665 164.741,109.077 164.741 C 109.490 164.741,109.827 164.865,109.827 165.016 C 109.827 165.167,110.840 165.385,112.078 165.501 C 113.316 165.617,114.329 165.831,114.329 165.977 C 114.329 166.122,114.801 166.242,115.379 166.242 C 116.299 166.242,116.429 166.334,116.429 166.992 C 116.429 167.404,116.294 167.742,116.129 167.742 C 115.964 167.742,115.829 168.080,115.829 168.492 C 115.829 168.905,115.694 169.242,115.529 169.242 C 115.364 169.242,115.229 169.572,115.229 169.975 C 115.229 170.378,115.100 170.787,114.942 170.885 C 114.784 170.982,114.726 171.247,114.812 171.472 C 114.899 171.698,114.825 171.971,114.649 172.080 C 114.473 172.189,114.329 172.608,114.329 173.011 C 114.329 173.414,114.194 173.743,114.029 173.743 C 113.863 173.743,113.728 174.073,113.728 174.476 C 113.728 174.879,113.606 175.284,113.457 175.376 C 113.307 175.469,113.255 175.814,113.341 176.144 C 113.429 176.480,113.351 176.744,113.163 176.744 C 112.979 176.744,112.828 177.014,112.828 177.344 C 112.828 177.674,112.693 177.944,112.528 177.944 C 112.363 177.944,112.228 178.358,112.228 178.862 C 112.228 179.418,112.106 179.705,111.918 179.589 C 111.723 179.468,111.660 179.685,111.748 180.171 C 111.825 180.597,111.778 180.945,111.643 180.945 C 111.418 180.945,111.120 181.631,110.863 182.740 C 110.807 182.985,110.626 183.230,110.461 183.285 C 110.296 183.340,110.230 183.565,110.315 183.785 C 110.399 184.005,110.324 184.275,110.148 184.383 C 109.972 184.492,109.827 184.844,109.827 185.164 C 109.827 185.484,109.709 185.746,109.565 185.746 C 109.289 185.746,108.809 187.428,108.900 188.072 C 108.930 188.278,108.813 188.447,108.640 188.447 C 108.468 188.447,108.327 188.650,108.327 188.897 C 108.327 189.145,108.175 189.347,107.989 189.347 C 107.770 189.347,107.718 189.689,107.839 190.323 C 107.972 191.016,107.941 191.168,107.731 190.848 C 107.453 190.423,107.406 190.454,107.314 191.123 C 107.294 191.274,107.176 191.499,107.052 191.623 C 106.928 191.747,106.827 192.096,106.827 192.398 C 106.827 192.701,106.706 192.948,106.559 192.948 C 106.412 192.948,106.199 193.318,106.085 193.770 C 105.972 194.223,105.755 194.669,105.604 194.762 C 105.453 194.856,105.300 195.286,105.264 195.719 C 105.228 196.152,105.107 196.449,104.994 196.379 C 104.760 196.235,104.426 196.979,104.426 197.645 C 104.426 197.891,104.222 198.296,103.973 198.545 C 103.724 198.794,103.610 199.143,103.720 199.320 C 103.836 199.508,103.778 199.556,103.581 199.434 C 103.377 199.308,103.168 199.527,103.052 199.988 C 102.947 200.407,102.740 200.750,102.593 200.750 C 102.446 200.750,102.326 201.020,102.326 201.350 C 102.326 201.680,102.206 201.950,102.061 201.950 C 101.803 201.950,101.328 203.073,101.393 203.526 C 101.411 203.650,101.290 203.751,101.125 203.751 C 100.960 203.751,100.825 204.021,100.825 204.351 C 100.825 204.681,100.705 204.951,100.558 204.951 C 100.411 204.951,100.205 205.292,100.100 205.709 C 99.995 206.126,99.672 206.704,99.382 206.994 C 98.813 207.563,97.824 209.486,97.824 210.023 C 97.824 210.204,97.692 210.353,97.530 210.353 C 97.368 210.353,97.151 210.690,97.047 211.103 C 96.944 211.515,96.739 211.853,96.592 211.853 C 96.444 211.853,96.324 212.056,96.324 212.303 C 96.324 212.551,96.173 212.753,95.989 212.753 C 95.802 212.753,95.723 213.018,95.811 213.353 C 95.912 213.741,95.820 213.953,95.552 213.953 C 95.323 213.953,95.050 214.291,94.947 214.704 C 94.843 215.116,94.638 215.454,94.491 215.454 C 94.344 215.454,94.224 215.656,94.224 215.904 C 94.224 216.152,94.081 216.354,93.906 216.354 C 93.731 216.354,93.671 216.489,93.773 216.654 C 93.875 216.819,93.816 216.954,93.641 216.954 C 93.466 216.954,93.323 217.157,93.323 217.404 C 93.323 217.652,93.188 217.854,93.023 217.854 C 92.858 217.854,92.723 218.057,92.723 218.305 C 92.723 218.552,92.580 218.755,92.405 218.755 C 92.231 218.755,92.171 218.890,92.273 219.055 C 92.375 219.220,92.316 219.355,92.141 219.355 C 91.966 219.355,91.823 219.557,91.823 219.805 C 91.823 220.053,91.690 220.255,91.529 220.255 C 91.367 220.255,91.150 220.593,91.046 221.005 C 90.942 221.418,90.737 221.755,90.590 221.755 C 90.443 221.755,90.323 221.964,90.323 222.218 C 90.323 222.473,90.057 222.966,89.733 223.314 C 89.408 223.662,89.214 224.061,89.300 224.201 C 89.387 224.342,89.315 224.456,89.140 224.456 C 88.965 224.456,88.822 224.609,88.822 224.796 C 88.822 224.983,88.540 225.381,88.195 225.680 C 87.849 225.980,87.655 226.367,87.762 226.541 C 87.870 226.715,87.814 226.857,87.640 226.857 C 87.465 226.857,87.322 227.067,87.322 227.325 C 87.322 227.582,87.187 227.709,87.022 227.607 C 86.857 227.505,86.722 227.632,86.722 227.889 C 86.722 228.147,86.596 228.357,86.442 228.357 C 86.288 228.357,86.068 228.655,85.952 229.018 C 85.837 229.382,85.558 229.864,85.332 230.090 C 85.106 230.316,84.921 230.693,84.921 230.929 C 84.921 231.165,84.786 231.358,84.621 231.358 C 84.456 231.358,84.321 231.503,84.321 231.679 C 84.321 231.856,84.119 232.203,83.871 232.451 C 83.002 233.320,83.338 235.556,84.396 235.946 C 84.685 236.053,84.921 236.353,84.921 236.614 C 84.921 236.875,85.257 237.399,85.667 237.779 C 86.076 238.159,86.345 238.536,86.264 238.617 C 86.183 238.699,86.512 239.179,86.996 239.686 C 87.480 240.192,87.796 240.686,87.699 240.783 C 87.602 240.881,87.679 240.960,87.872 240.960 C 88.065 240.960,88.222 241.113,88.222 241.300 C 88.222 241.487,88.513 241.892,88.868 242.200 C 89.223 242.509,89.405 242.761,89.272 242.761 C 89.139 242.761,89.321 243.013,89.677 243.321 C 90.032 243.629,90.323 244.028,90.323 244.208 C 90.323 244.387,90.660 244.871,91.073 245.284 C 91.485 245.697,91.823 246.169,91.823 246.334 C 91.823 246.499,92.161 246.972,92.573 247.385 C 92.986 247.797,93.323 248.215,93.323 248.313 C 93.323 248.411,93.661 248.804,94.074 249.186 C 94.486 249.568,94.824 250.041,94.824 250.236 C 94.824 250.432,95.161 250.904,95.574 251.287 C 95.986 251.669,96.324 252.114,96.324 252.277 C 96.324 252.683,97.399 253.889,97.590 253.698 C 97.676 253.612,97.825 253.941,97.923 254.429 C 98.028 254.959,98.346 255.394,98.712 255.510 C 99.049 255.617,99.325 255.935,99.325 256.218 C 99.325 256.500,99.561 256.944,99.850 257.205 C 100.582 257.865,101.233 258.697,101.892 259.812 C 102.202 260.336,102.583 260.765,102.740 260.765 C 102.897 260.765,102.944 260.847,102.844 260.947 C 102.574 261.217,103.326 261.930,103.676 261.736 C 103.841 261.644,103.879 261.676,103.761 261.807 C 103.462 262.139,104.061 263.166,104.553 263.166 C 104.777 263.166,104.941 263.394,104.918 263.673 C 104.895 263.953,105.192 264.342,105.578 264.540 C 106.066 264.789,106.158 264.947,105.878 265.059 C 105.586 265.175,105.578 265.225,105.851 265.243 C 106.058 265.256,106.227 265.469,106.227 265.716 C 106.227 266.114,106.564 266.291,107.170 266.213 C 107.277 266.199,107.446 266.623,107.546 267.156 C 107.646 267.689,108.065 268.378,108.477 268.688 C 108.890 268.998,109.227 269.503,109.227 269.809 C 109.227 270.321,109.564 270.514,110.239 270.391 C 110.383 270.365,110.421 270.551,110.324 270.805 C 110.226 271.060,110.277 271.268,110.437 271.268 C 110.597 271.268,110.728 271.438,110.728 271.647 C 110.728 271.855,111.065 272.279,111.478 272.589 C 111.890 272.899,112.228 273.346,112.228 273.582 C 112.228 274.108,112.987 274.910,113.243 274.654 C 113.345 274.552,113.428 274.762,113.428 275.121 C 113.428 275.479,113.766 276.066,114.179 276.425 C 114.591 276.784,114.929 277.237,114.929 277.431 C 114.929 277.626,115.258 278.033,115.661 278.335 C 116.064 278.638,116.336 278.977,116.267 279.089 C 116.198 279.201,116.529 279.700,117.004 280.196 C 117.478 280.693,117.955 281.378,118.063 281.719 C 118.172 282.061,118.523 282.423,118.845 282.526 C 119.167 282.628,119.430 282.967,119.430 283.280 C 119.430 283.594,119.700 283.994,120.030 284.171 C 120.360 284.348,120.630 284.670,120.630 284.887 C 120.630 285.105,121.069 285.741,121.605 286.302 C 122.141 286.863,122.537 287.322,122.486 287.322 C 122.122 287.322,122.906 288.387,123.380 288.538 C 123.735 288.650,123.908 288.898,123.811 289.152 C 123.721 289.386,123.914 289.744,124.239 289.947 C 124.565 290.151,124.831 290.473,124.831 290.663 C 124.831 290.854,125.236 291.443,125.731 291.973 C 126.227 292.503,126.632 293.062,126.632 293.216 C 126.632 293.476,126.892 293.803,128.657 295.755 C 129.029 296.165,129.332 296.679,129.332 296.896 C 129.332 297.113,129.662 297.538,130.064 297.840 C 130.467 298.142,130.875 298.702,130.970 299.082 C 131.265 300.256,133.188 299.375,133.223 298.050 C 133.229 297.843,133.383 297.674,133.565 297.674 C 133.748 297.674,133.820 297.472,133.725 297.224 C 133.630 296.977,133.683 296.774,133.843 296.774 C 134.003 296.774,134.134 296.625,134.134 296.442 C 134.134 296.260,134.471 295.709,134.884 295.219 C 135.296 294.729,135.634 294.068,135.634 293.750 C 135.634 293.433,135.769 293.173,135.934 293.173 C 136.099 293.173,136.234 292.971,136.234 292.723 C 136.234 292.476,136.358 292.273,136.510 292.273 C 136.662 292.273,136.880 291.834,136.995 291.298 C 137.110 290.761,137.457 290.083,137.766 289.789 C 138.075 289.496,138.411 288.922,138.514 288.514 C 138.616 288.106,138.816 287.772,138.958 287.772 C 139.100 287.772,139.138 287.569,139.043 287.322 C 138.934 287.037,139.047 286.872,139.353 286.872 C 139.773 286.872,140.009 286.148,139.868 285.288 C 139.847 285.160,140.033 284.976,140.282 284.881 C 140.531 284.785,140.735 284.519,140.735 284.289 C 140.735 284.059,140.855 283.871,141.002 283.871 C 141.149 283.871,141.357 283.398,141.466 282.821 C 141.574 282.243,141.792 281.770,141.949 281.770 C 142.107 281.770,142.236 281.568,142.236 281.320 C 142.236 281.073,142.386 280.870,142.571 280.870 C 142.765 280.870,142.846 280.559,142.764 280.129 C 142.686 279.722,142.738 279.459,142.879 279.547 C 143.020 279.634,143.136 279.495,143.136 279.238 C 143.136 278.980,143.238 278.770,143.363 278.770 C 143.653 278.770,144.324 277.260,144.520 276.164 C 144.603 275.699,144.799 275.274,144.954 275.219 C 145.109 275.164,145.236 274.927,145.236 274.694 C 145.236 274.460,145.365 274.269,145.523 274.269 C 145.680 274.269,145.898 273.796,146.006 273.218 C 146.115 272.641,146.290 272.168,146.397 272.168 C 146.630 272.168,147.228 270.830,147.503 269.692 C 147.612 269.239,147.822 268.867,147.970 268.867 C 148.117 268.867,148.237 268.597,148.237 268.267 C 148.237 267.937,148.355 267.667,148.499 267.667 C 148.643 267.667,148.847 267.127,148.952 266.467 C 149.058 265.806,149.244 265.265,149.366 265.264 C 149.488 265.263,149.744 264.925,149.934 264.513 C 150.168 264.010,150.175 263.831,149.958 263.965 C 149.779 264.075,149.860 263.843,150.136 263.449 C 150.412 263.055,150.638 262.492,150.638 262.199 C 150.638 261.905,150.773 261.665,150.938 261.665 C 151.103 261.665,151.238 261.328,151.238 260.915 C 151.238 260.503,151.371 260.165,151.534 260.165 C 151.697 260.165,151.917 259.625,152.023 258.965 C 152.128 258.305,152.333 257.764,152.476 257.764 C 152.620 257.764,152.738 257.427,152.738 257.014 C 152.738 256.602,152.872 256.264,153.035 256.264 C 153.198 256.264,153.418 255.724,153.523 255.064 C 153.629 254.404,153.833 253.863,153.977 253.863 C 154.121 253.863,154.239 253.526,154.239 253.113 C 154.239 252.701,154.361 252.363,154.510 252.363 C 154.660 252.363,154.875 251.688,154.989 250.863 C 155.102 250.038,155.317 249.362,155.467 249.362 C 155.617 249.362,155.739 249.025,155.739 248.612 C 155.739 248.200,155.861 247.862,156.011 247.862 C 156.160 247.862,156.376 247.187,156.489 246.362 C 156.603 245.536,156.832 244.861,156.999 244.861 C 157.167 244.861,157.227 244.663,157.134 244.420 C 157.041 244.177,157.139 243.804,157.352 243.591 C 157.565 243.378,157.756 243.003,157.776 242.757 C 157.887 241.382,158.237 239.897,158.471 239.810 C 158.619 239.755,158.740 239.384,158.740 238.985 C 158.740 238.586,158.886 238.260,159.064 238.260 C 159.262 238.260,159.334 237.849,159.247 237.209 C 159.169 236.632,159.226 236.159,159.373 236.159 C 159.520 236.159,159.640 235.821,159.640 235.409 C 159.640 234.996,159.775 234.659,159.940 234.659 C 160.105 234.659,160.240 234.186,160.240 233.608 C 160.240 233.008,160.390 232.558,160.590 232.558 C 160.783 232.558,160.863 232.480,160.768 232.386 C 160.673 232.291,160.706 231.825,160.842 231.352 C 161.009 230.770,160.975 230.444,160.740 230.348 C 160.491 230.246,160.498 230.198,160.765 230.181 C 160.971 230.168,161.140 229.820,161.140 229.407 C 161.140 228.995,161.275 228.657,161.440 228.657 C 161.605 228.657,161.740 228.311,161.740 227.887 C 161.740 227.464,161.861 226.890,162.008 226.612 C 162.155 226.334,162.345 225.316,162.429 224.350 C 162.514 223.384,162.731 222.445,162.912 222.264 C 163.093 222.083,163.241 221.422,163.241 220.795 C 163.241 220.168,163.366 219.655,163.518 219.655 C 163.671 219.655,163.891 218.440,164.007 216.954 C 164.123 215.469,164.336 214.254,164.480 214.254 C 164.624 214.254,164.741 213.578,164.741 212.753 C 164.741 211.928,164.862 211.253,165.009 211.253 C 165.156 211.253,165.373 209.902,165.491 208.252 C 165.609 206.602,165.827 205.251,165.974 205.251 C 166.121 205.251,166.242 204.382,166.242 203.319 C 166.242 202.256,166.383 201.299,166.555 201.192 C 166.728 201.085,166.856 200.368,166.841 199.599 C 166.826 198.829,166.964 196.782,167.147 195.049 C 167.331 193.316,167.549 190.444,167.631 188.666 C 167.724 186.645,167.891 185.503,168.077 185.618 C 168.264 185.734,168.368 184.826,168.359 183.148 C 168.336 178.644,168.658 164.613,168.794 164.216 C 168.865 164.010,169.333 163.841,169.833 163.841 C 170.333 163.841,170.743 163.706,170.743 163.541 C 170.743 163.376,171.080 163.241,171.493 163.241 C 171.905 163.241,172.243 163.118,172.243 162.969 C 172.243 162.819,172.918 162.604,173.743 162.491 C 174.569 162.377,175.244 162.162,175.244 162.012 C 175.244 161.863,175.649 161.740,176.144 161.740 C 176.639 161.740,177.044 161.623,177.044 161.479 C 177.044 161.335,177.714 161.129,178.532 161.020 C 179.351 160.912,180.112 160.675,180.224 160.493 C 180.475 160.088,181.245 161.834,181.245 162.807 C 181.245 163.191,181.365 163.579,181.510 163.669 C 181.656 163.759,181.868 164.577,181.982 165.487 C 182.096 166.397,182.314 167.142,182.467 167.142 C 182.620 167.142,182.746 167.614,182.746 168.192 C 182.746 168.770,182.863 169.242,183.007 169.242 C 183.151 169.242,183.360 170.053,183.472 171.043 C 183.584 172.033,183.804 172.843,183.961 172.843 C 184.118 172.843,184.246 173.248,184.246 173.743 C 184.246 174.239,184.371 174.644,184.525 174.644 C 184.678 174.644,184.897 175.397,185.012 176.318 C 185.127 177.239,185.387 178.056,185.589 178.133 C 185.800 178.214,185.898 178.589,185.817 179.010 C 185.740 179.414,185.815 179.745,185.983 179.745 C 186.152 179.745,186.383 180.420,186.497 181.246 C 186.610 182.071,186.825 182.671,186.975 182.578 C 187.124 182.486,187.247 182.883,187.247 183.460 C 187.247 184.038,187.366 184.585,187.512 184.675 C 187.658 184.765,187.869 185.445,187.980 186.186 C 188.091 186.927,188.309 187.612,188.464 187.708 C 188.620 187.804,188.747 188.212,188.747 188.615 C 188.747 189.018,188.882 189.347,189.047 189.347 C 189.212 189.347,189.347 189.615,189.347 189.941 C 189.347 190.609,190.240 193.017,190.573 193.248 C 190.692 193.331,190.885 194.040,191.002 194.824 C 191.120 195.608,191.336 196.249,191.482 196.249 C 191.628 196.249,191.748 196.436,191.748 196.665 C 191.748 196.894,191.950 197.467,192.196 197.940 C 192.443 198.413,192.645 199.104,192.646 199.475 C 192.647 199.846,192.783 200.150,192.948 200.150 C 193.113 200.150,193.248 200.502,193.248 200.932 C 193.248 201.492,193.372 201.667,193.683 201.548 C 193.974 201.436,194.063 201.525,193.951 201.816 C 193.859 202.055,193.887 202.487,194.012 202.776 C 194.138 203.065,194.268 203.436,194.301 203.601 C 194.477 204.465,194.849 205.251,195.084 205.251 C 195.230 205.251,195.349 205.581,195.349 205.984 C 195.349 206.387,195.486 206.801,195.654 206.905 C 195.822 207.008,195.881 207.219,195.786 207.373 C 195.691 207.526,195.756 207.652,195.931 207.652 C 196.106 207.652,196.249 207.914,196.249 208.234 C 196.249 208.555,196.384 208.900,196.549 209.002 C 196.714 209.104,196.849 209.458,196.849 209.788 C 196.849 210.118,196.972 210.312,197.121 210.220 C 197.271 210.127,197.323 210.322,197.236 210.652 C 197.148 210.988,197.227 211.253,197.414 211.253 C 197.599 211.253,197.749 211.455,197.749 211.703 C 197.749 211.950,197.884 212.153,198.050 212.153 C 198.215 212.153,198.350 212.499,198.350 212.921 C 198.350 213.343,198.465 213.617,198.606 213.530 C 198.748 213.443,198.799 213.705,198.721 214.113 C 198.639 214.543,198.720 214.854,198.915 214.854 C 199.099 214.854,199.250 215.056,199.250 215.304 C 199.250 215.551,199.374 215.754,199.526 215.754 C 199.678 215.754,199.892 216.164,200.003 216.666 C 200.113 217.168,200.664 218.478,201.227 219.578 C 201.790 220.677,202.251 221.752,202.251 221.966 C 202.251 222.180,202.375 222.356,202.527 222.356 C 202.679 222.356,202.890 222.749,202.995 223.231 C 203.101 223.712,203.379 224.180,203.614 224.270 C 203.853 224.361,203.963 224.637,203.864 224.895 C 203.751 225.188,203.857 225.356,204.151 225.356 C 204.407 225.356,204.712 225.512,204.830 225.703 C 204.969 225.928,204.911 225.967,204.665 225.815 C 204.381 225.640,204.342 225.759,204.509 226.294 C 204.631 226.686,204.848 227.052,204.991 227.107 C 205.134 227.162,205.251 227.466,205.251 227.782 C 205.251 228.098,205.372 228.357,205.519 228.357 C 205.666 228.357,205.871 228.695,205.975 229.107 C 206.078 229.520,206.295 229.857,206.457 229.857 C 206.619 229.857,206.752 230.060,206.752 230.308 C 206.752 230.555,206.881 230.758,207.038 230.758 C 207.196 230.758,207.413 231.230,207.522 231.808 C 207.630 232.386,207.839 232.858,207.985 232.858 C 208.132 232.858,208.252 233.061,208.252 233.308 C 208.252 233.556,208.372 233.758,208.520 233.758 C 208.667 233.758,208.872 234.096,208.975 234.509 C 209.079 234.921,209.296 235.259,209.458 235.259 C 209.620 235.259,209.752 235.461,209.752 235.709 C 209.752 235.956,209.878 236.159,210.032 236.159 C 210.185 236.159,210.357 236.463,210.414 236.834 C 210.471 237.206,210.682 237.476,210.885 237.434 C 211.097 237.391,211.253 237.676,211.253 238.110 C 211.253 238.522,211.373 238.860,211.520 238.860 C 211.668 238.860,211.873 239.197,211.976 239.610 C 212.080 240.023,212.297 240.360,212.459 240.360 C 212.621 240.360,212.753 240.571,212.753 240.828 C 212.753 241.085,212.888 241.212,213.053 241.110 C 213.218 241.008,213.353 241.193,213.353 241.521 C 213.353 241.849,213.556 242.320,213.803 242.568 C 214.051 242.815,214.254 243.163,214.254 243.339 C 214.254 243.516,214.386 243.661,214.548 243.661 C 214.710 243.661,214.927 243.998,215.031 244.411 C 215.134 244.824,215.318 245.161,215.439 245.161 C 215.560 245.161,215.910 245.626,216.215 246.193 C 216.521 246.761,216.901 247.145,217.059 247.047 C 217.217 246.949,217.257 247.014,217.148 247.191 C 217.038 247.368,217.153 247.717,217.402 247.966 C 217.651 248.215,217.854 248.558,217.854 248.727 C 217.854 248.896,218.176 249.356,218.569 249.749 C 218.962 250.142,219.376 250.756,219.489 251.113 C 219.603 251.471,219.821 251.763,219.975 251.763 C 220.129 251.763,220.255 251.965,220.255 252.213 C 220.255 252.461,220.381 252.663,220.535 252.663 C 220.689 252.663,220.911 252.967,221.028 253.338 C 221.145 253.710,221.468 254.216,221.745 254.464 C 222.022 254.711,222.504 255.353,222.817 255.889 C 223.129 256.425,223.554 256.864,223.761 256.864 C 223.968 256.864,224.066 257.049,223.979 257.276 C 223.817 257.699,224.581 258.665,225.078 258.665 C 225.231 258.665,225.356 258.886,225.356 259.157 C 225.356 259.731,227.011 261.411,227.296 261.126 C 227.402 261.020,227.402 261.159,227.297 261.434 C 227.173 261.757,227.406 262.253,227.956 262.834 C 229.315 264.270,230.158 265.340,230.158 265.632 C 230.158 265.780,230.293 265.818,230.458 265.716 C 230.623 265.614,230.758 265.759,230.758 266.038 C 230.758 266.317,231.230 266.992,231.808 267.536 C 232.386 268.081,232.858 268.665,232.858 268.833 C 232.858 269.493,234.424 270.744,234.719 270.320 C 234.911 270.043,234.939 270.129,234.808 270.593 C 234.696 270.990,234.750 271.268,234.939 271.268 C 235.115 271.268,235.259 271.412,235.259 271.589 C 235.259 272.050,236.050 272.778,236.289 272.538 C 236.400 272.427,236.411 272.545,236.313 272.799 C 236.196 273.104,236.395 273.380,236.898 273.609 C 237.317 273.799,237.659 274.152,237.659 274.392 C 237.659 274.632,237.929 274.914,238.260 275.019 C 238.590 275.124,238.860 275.405,238.860 275.643 C 238.860 275.882,240.008 277.225,241.410 278.628 C 242.813 280.031,243.961 281.307,243.961 281.463 C 243.961 281.930,245.228 282.965,245.553 282.764 C 245.719 282.662,245.763 282.725,245.652 282.906 C 245.426 283.271,258.466 296.446,259.882 297.282 C 260.368 297.569,260.765 297.910,260.765 298.039 C 260.765 298.169,260.953 298.275,261.183 298.275 C 261.585 298.275,262.112 297.465,262.013 296.999 C 261.987 296.875,262.134 296.770,262.341 296.765 C 262.547 296.760,262.975 296.400,263.292 295.965 C 263.657 295.465,263.712 295.261,263.442 295.410 C 263.208 295.540,263.522 295.179,264.141 294.608 C 264.760 294.037,265.266 293.471,265.266 293.350 C 265.266 293.229,265.435 292.942,265.641 292.712 C 266.655 291.582,266.806 291.308,266.646 290.892 C 266.551 290.644,266.602 290.521,266.759 290.618 C 266.916 290.715,267.320 290.520,267.656 290.183 C 267.992 289.847,268.179 289.572,268.071 289.572 C 267.962 289.572,268.098 289.325,268.371 289.023 C 268.645 288.721,268.801 288.383,268.718 288.273 C 268.635 288.162,268.655 288.137,268.762 288.217 C 269.097 288.466,270.379 286.744,270.203 286.281 C 270.111 286.038,270.125 285.929,270.234 286.037 C 270.443 286.247,271.864 284.966,271.873 284.560 C 271.876 284.428,272.220 283.997,272.638 283.600 C 273.099 283.163,273.327 282.695,273.217 282.409 C 273.118 282.150,273.130 282.032,273.245 282.147 C 273.462 282.364,275.156 280.613,275.164 280.163 C 275.167 280.022,275.506 279.641,275.919 279.316 C 276.332 278.992,276.669 278.595,276.669 278.434 C 276.669 278.274,277.007 277.805,277.419 277.392 C 277.832 276.979,278.170 276.508,278.170 276.345 C 278.170 276.182,278.541 275.678,278.995 275.226 C 279.449 274.773,280.090 274.020,280.420 273.552 C 280.750 273.084,281.189 272.524,281.395 272.306 C 281.602 272.089,281.770 271.828,281.770 271.726 C 281.770 271.625,282.108 271.178,282.521 270.733 C 282.933 270.288,283.271 269.749,283.271 269.536 C 283.271 269.323,283.473 269.071,283.721 268.976 C 283.968 268.881,284.171 268.607,284.171 268.367 C 284.171 268.128,284.306 268.015,284.471 268.117 C 284.636 268.219,284.771 268.092,284.771 267.835 C 284.771 267.577,284.914 267.367,285.089 267.367 C 285.264 267.367,285.323 267.232,285.221 267.067 C 285.119 266.902,285.187 266.767,285.371 266.767 C 285.556 266.767,285.623 266.632,285.521 266.467 C 285.419 266.302,285.535 266.167,285.779 266.167 C 286.022 266.167,286.401 265.761,286.620 265.266 C 286.839 264.771,287.179 264.366,287.375 264.366 C 287.571 264.366,287.822 264.080,287.933 263.730 C 288.044 263.380,288.526 262.685,289.004 262.185 C 289.482 261.685,289.872 261.109,289.872 260.905 C 289.872 260.701,290.209 260.314,290.621 260.044 C 291.032 259.774,291.354 259.455,291.335 259.334 C 291.250 258.774,291.401 258.365,291.694 258.365 C 292.109 258.365,292.873 257.602,292.873 257.188 C 292.873 257.013,293.278 256.482,293.773 256.009 C 294.269 255.536,294.674 254.980,294.674 254.774 C 294.674 254.568,295.011 254.134,295.424 253.810 C 295.836 253.485,296.174 253.057,296.174 252.858 C 296.174 252.659,296.444 252.301,296.774 252.063 C 297.104 251.825,297.374 251.469,297.374 251.272 C 297.374 251.075,297.813 250.457,298.350 249.898 C 298.886 249.339,299.595 248.503,299.925 248.039 C 300.255 247.575,300.694 247.017,300.900 246.800 C 301.107 246.582,301.275 246.309,301.275 246.192 C 301.275 246.076,301.613 245.667,302.026 245.285 C 302.438 244.903,302.776 244.458,302.776 244.297 C 302.776 244.136,303.253 243.497,303.837 242.878 C 304.492 242.184,304.831 241.575,304.722 241.290 C 304.624 241.036,304.639 240.923,304.755 241.040 C 305.072 241.356,306.438 239.753,306.256 239.278 C 306.169 239.052,306.195 238.881,306.312 238.899 C 306.824 238.975,307.362 238.845,307.201 238.684 C 307.045 238.527,307.418 237.958,308.339 236.951 C 309.453 235.732,310.278 233.352,309.398 233.896 C 309.244 233.991,309.034 233.931,308.930 233.763 C 308.827 233.596,308.480 233.458,308.159 233.458 C 307.839 233.458,307.577 233.323,307.577 233.158 C 307.577 232.993,307.390 232.858,307.161 232.858 C 306.932 232.858,306.358 232.656,305.886 232.410 C 305.413 232.163,304.722 231.961,304.351 231.960 C 303.980 231.959,303.675 231.857,303.674 231.733 C 303.671 231.483,302.236 230.758,301.741 230.756 C 301.567 230.756,300.781 230.428,299.993 230.029 C 299.206 229.629,298.159 229.214,297.668 229.106 C 297.176 228.998,296.774 228.785,296.774 228.633 C 296.774 228.481,296.587 228.357,296.358 228.357 C 296.130 228.357,295.556 228.155,295.083 227.909 C 294.610 227.662,293.987 227.460,293.698 227.459 C 293.410 227.458,293.173 227.322,293.173 227.157 C 293.173 226.992,292.971 226.857,292.723 226.857 C 292.476 226.857,292.273 226.722,292.273 226.557 C 292.273 226.392,292.037 226.256,291.748 226.255 C 291.459 226.254,290.836 226.051,290.363 225.805 C 289.891 225.558,289.317 225.356,289.088 225.356 C 288.859 225.356,288.672 225.232,288.672 225.080 C 288.672 224.928,288.267 224.715,287.772 224.606 C 287.277 224.497,286.872 224.284,286.872 224.132 C 286.872 223.980,286.602 223.856,286.272 223.856 C 285.941 223.856,285.671 223.732,285.671 223.580 C 285.671 223.428,285.266 223.215,284.771 223.106 C 284.276 222.997,283.871 222.784,283.871 222.632 C 283.871 222.480,283.601 222.356,283.271 222.356 C 282.941 222.356,282.671 222.231,282.671 222.079 C 282.671 221.927,282.266 221.714,281.770 221.605 C 281.275 221.497,280.870 221.283,280.870 221.131 C 280.870 220.980,280.600 220.855,280.270 220.855 C 279.940 220.855,279.670 220.720,279.670 220.555 C 279.670 220.390,279.516 220.255,279.328 220.255 C 279.140 220.255,278.328 219.850,277.523 219.355 C 276.718 218.860,275.859 218.455,275.614 218.455 C 275.369 218.455,275.169 218.320,275.169 218.155 C 275.169 217.989,274.966 217.854,274.719 217.854 C 274.471 217.854,274.269 217.722,274.269 217.560 C 274.269 217.398,273.931 217.181,273.518 217.077 C 273.106 216.974,272.768 216.769,272.768 216.622 C 272.768 216.474,272.566 216.354,272.318 216.354 C 272.071 216.354,271.868 216.219,271.868 216.054 C 271.868 215.889,271.608 215.754,271.289 215.754 C 270.971 215.754,270.508 215.551,270.260 215.304 C 270.013 215.056,269.666 214.854,269.489 214.854 C 269.312 214.854,269.167 214.721,269.167 214.559 C 269.167 214.397,268.802 214.173,268.355 214.061 C 267.909 213.949,267.228 213.542,266.841 213.155 C 266.455 212.769,265.973 212.453,265.769 212.453 C 265.565 212.453,265.204 212.183,264.966 211.853 C 264.728 211.523,264.371 211.253,264.171 211.253 C 263.972 211.253,263.630 211.084,263.412 210.878 C 262.760 210.260,260.819 208.852,260.621 208.852 C 260.519 208.852,260.124 208.515,259.741 208.102 C 259.359 207.689,258.925 207.352,258.777 207.352 C 258.629 207.352,258.144 207.014,257.699 206.602 C 257.254 206.189,256.799 205.851,256.687 205.851 C 256.575 205.851,256.163 205.506,255.772 205.084 C 255.374 204.655,254.909 204.411,254.716 204.531 C 254.503 204.662,254.453 204.612,254.585 204.397 C 254.703 204.207,254.671 204.051,254.515 204.051 C 254.359 204.051,253.614 203.443,252.861 202.701 C 252.108 201.958,251.408 201.350,251.306 201.350 C 251.203 201.350,250.932 201.182,250.702 200.975 C 249.681 200.060,249.414 199.898,249.228 200.084 C 249.120 200.193,249.120 200.050,249.229 199.766 C 249.337 199.482,249.301 199.250,249.148 199.250 C 248.995 199.250,248.094 198.505,247.146 197.594 C 246.198 196.683,245.296 196.016,245.142 196.111 C 244.987 196.206,244.861 196.148,244.861 195.980 C 244.861 195.813,244.093 194.893,243.154 193.937 C 242.215 192.981,241.560 192.388,241.700 192.620 C 241.873 192.908,241.842 192.972,241.602 192.824 C 241.409 192.704,241.316 192.500,241.397 192.370 C 241.546 192.129,239.533 189.750,237.899 188.236 C 237.371 187.747,236.961 187.234,236.327 186.266 C 236.034 185.818,235.673 185.526,235.526 185.617 C 235.379 185.708,235.259 185.571,235.259 185.314 C 235.259 185.057,235.153 184.846,235.023 184.846 C 234.894 184.846,234.531 184.411,234.217 183.880 C 233.903 183.348,233.334 182.624,232.952 182.270 C 232.570 181.916,232.258 181.473,232.258 181.286 C 232.258 181.099,232.132 180.945,231.978 180.945 C 231.824 180.945,231.615 180.682,231.513 180.360 C 231.411 180.039,231.064 179.692,230.742 179.590 C 230.421 179.488,230.158 179.139,230.158 178.815 C 230.158 178.477,229.869 178.118,229.482 177.975 C 229.111 177.838,228.823 177.606,228.842 177.460 C 228.897 177.033,228.284 175.844,228.009 175.844 C 227.870 175.844,227.757 175.641,227.757 175.394 C 227.757 175.146,227.653 174.944,227.525 174.944 C 227.398 174.944,227.039 174.471,226.728 173.893 C 226.417 173.316,226.048 172.843,225.909 172.843 C 225.770 172.843,225.656 172.650,225.656 172.415 C 225.656 172.179,225.475 171.804,225.253 171.583 C 225.031 171.361,224.471 170.575,224.008 169.836 C 223.545 169.097,223.027 168.402,222.857 168.291 C 222.687 168.180,222.512 167.845,222.468 167.546 C 222.424 167.247,222.246 166.955,222.072 166.897 C 221.898 166.839,221.755 166.600,221.755 166.367 C 221.755 166.133,221.635 165.941,221.488 165.941 C 221.341 165.941,221.136 165.604,221.032 165.191 C 220.929 164.779,220.711 164.441,220.549 164.441 C 220.388 164.441,220.255 164.171,220.255 163.841 C 220.255 163.511,220.123 163.241,219.961 163.241 C 219.799 163.241,219.584 162.913,219.484 162.512 C 219.383 162.112,219.102 161.708,218.859 161.614 C 218.615 161.521,218.501 161.309,218.603 161.142 C 218.706 160.976,218.679 160.840,218.543 160.840 C 218.299 160.840,217.764 159.976,217.382 158.965 C 217.273 158.676,217.065 158.440,216.919 158.440 C 216.773 158.440,216.652 158.203,216.649 157.914 C 216.646 157.626,216.241 156.795,215.748 156.069 C 215.256 155.343,214.854 154.566,214.854 154.343 C 214.854 154.121,214.719 153.938,214.554 153.938 C 214.389 153.938,214.254 153.668,214.254 153.338 C 214.254 153.008,214.129 152.738,213.977 152.738 C 213.825 152.738,213.612 152.333,213.503 151.838 C 213.395 151.343,213.181 150.938,213.029 150.938 C 212.877 150.938,212.753 150.668,212.753 150.338 C 212.753 150.008,212.629 149.737,212.477 149.737 C 212.325 149.737,212.112 149.332,212.003 148.837 C 211.894 148.342,211.681 147.937,211.529 147.937 C 211.377 147.937,211.253 147.667,211.253 147.337 C 211.253 147.007,211.118 146.737,210.953 146.737 C 210.337 146.737,210.686 146.255,211.694 145.712 C 212.267 145.404,212.673 145.050,212.597 144.927 C 212.521 144.803,212.933 144.613,213.513 144.504 C 214.093 144.395,214.732 144.043,214.933 143.721 C 215.134 143.399,215.544 143.136,215.844 143.136 C 216.144 143.136,216.307 143.002,216.206 142.839 C 216.100 142.668,216.223 142.619,216.498 142.725 C 216.776 142.831,217.186 142.662,217.488 142.314 C 217.772 141.988,218.342 141.615,218.755 141.485 C 219.167 141.356,219.707 141.018,219.955 140.735 C 220.203 140.452,220.709 140.125,221.080 140.008 C 221.452 139.890,221.755 139.669,221.755 139.515 C 221.755 139.361,221.958 139.235,222.206 139.235 C 222.453 139.235,222.656 139.114,222.656 138.967 C 222.656 138.820,223.020 138.608,223.465 138.497 C 224.100 138.337,224.181 138.234,223.840 138.018 C 223.513 137.811,223.600 137.742,224.194 137.739 C 224.628 137.737,225.151 137.532,225.356 137.284 C 225.562 137.037,225.908 136.834,226.126 136.834 C 226.344 136.834,226.699 136.584,226.915 136.277 C 227.130 135.971,227.611 135.624,227.982 135.507 C 228.353 135.389,228.657 135.167,228.657 135.014 C 228.657 134.860,228.927 134.734,229.257 134.734 C 229.587 134.734,229.857 134.595,229.857 134.426 C 229.857 134.257,230.199 133.989,230.615 133.831 C 231.032 133.672,231.452 133.338,231.548 133.088 C 231.644 132.838,231.982 132.633,232.300 132.633 C 232.617 132.633,232.955 132.431,233.050 132.183 C 233.145 131.935,233.415 131.733,233.650 131.733 C 233.885 131.733,234.155 131.530,234.250 131.283 C 234.345 131.035,234.577 130.833,234.766 130.832 C 234.954 130.832,235.501 130.495,235.981 130.082 C 236.460 129.670,236.973 129.332,237.120 129.332 C 237.266 129.332,237.724 128.995,238.137 128.582 C 238.549 128.170,239.026 127.832,239.195 127.832 C 239.599 127.832,240.360 127.062,240.360 126.653 C 240.360 126.476,240.615 126.332,240.926 126.332 C 241.238 126.332,241.807 125.937,242.192 125.454 C 242.576 124.971,242.997 124.642,243.128 124.723 C 243.258 124.803,243.446 124.659,243.544 124.402 C 243.643 124.145,243.845 124.009,243.992 124.100 C 244.140 124.192,244.261 124.133,244.261 123.969 C 244.261 123.805,244.533 123.585,244.866 123.479 C 245.198 123.374,245.380 123.141,245.269 122.963 C 245.155 122.778,245.207 122.724,245.390 122.836 C 245.566 122.946,246.117 122.629,246.613 122.133 C 247.110 121.636,247.669 121.230,247.857 121.230 C 248.044 121.230,248.123 121.110,248.032 120.962 C 247.941 120.815,248.194 120.612,248.594 120.511 C 248.995 120.411,249.408 120.059,249.513 119.729 C 249.617 119.400,249.904 119.130,250.150 119.130 C 250.412 119.130,250.509 118.986,250.384 118.783 C 250.250 118.567,250.302 118.518,250.522 118.655 C 250.733 118.785,251.409 118.323,252.208 117.501 C 252.941 116.746,253.676 116.129,253.840 116.129 C 254.320 116.129,258.087 112.208,257.899 111.904 C 257.806 111.752,258.041 111.628,258.422 111.628 C 259.188 111.627,261.527 109.432,261.246 108.977 C 261.152 108.825,261.467 108.622,261.946 108.526 C 262.452 108.425,262.897 108.102,263.007 107.755 C 263.111 107.426,263.453 107.076,263.766 106.977 C 264.079 106.877,264.419 106.533,264.521 106.211 C 264.623 105.890,264.823 105.626,264.965 105.626 C 265.107 105.626,265.402 105.434,265.620 105.199 C 265.838 104.963,266.827 103.879,267.817 102.790 C 268.807 101.701,270.529 99.842,271.643 98.660 C 272.757 97.477,273.668 96.365,273.668 96.188 C 273.668 96.011,274.006 95.613,274.419 95.303 C 274.831 94.993,275.169 94.548,275.169 94.314 C 275.169 94.080,275.279 93.956,275.414 94.039 C 275.549 94.123,275.913 93.759,276.223 93.232 C 276.533 92.705,277.098 92.027,277.478 91.726 C 277.859 91.425,278.170 91.048,278.170 90.887 C 278.170 90.727,278.507 90.258,278.920 89.845 C 279.332 89.433,279.670 88.931,279.670 88.730 C 279.670 88.529,280.008 88.111,280.420 87.801 C 280.833 87.491,281.170 86.996,281.170 86.700 C 281.170 86.404,281.433 86.078,281.755 85.976 C 282.077 85.874,282.431 85.505,282.541 85.156 C 282.652 84.807,283.064 84.201,283.457 83.808 C 283.850 83.415,284.171 82.879,284.171 82.616 C 284.171 82.354,284.475 81.833,284.846 81.458 C 285.857 80.438,286.321 79.820,286.077 79.820 C 285.957 79.820,286.154 79.545,286.515 79.208 C 286.876 78.872,287.172 78.449,287.172 78.268 C 287.172 78.088,287.423 77.721,287.729 77.455 C 288.035 77.188,288.382 76.665,288.499 76.294 C 288.617 75.923,288.839 75.619,288.992 75.619 C 289.146 75.619,289.272 75.428,289.272 75.194 C 289.272 74.960,289.415 74.721,289.589 74.663 C 289.763 74.605,289.936 74.350,289.973 74.096 C 290.010 73.843,290.336 73.318,290.696 72.931 C 291.057 72.544,291.281 72.113,291.195 71.973 C 291.108 71.833,291.180 71.718,291.355 71.718 C 291.530 71.718,291.673 71.577,291.673 71.405 C 291.673 71.233,291.948 70.797,292.285 70.436 C 292.621 70.075,292.978 69.453,293.078 69.055 C 293.178 68.656,293.507 68.083,293.809 67.781 C 294.111 67.479,294.444 66.891,294.549 66.474 C 294.653 66.057,294.859 65.716,295.006 65.716 C 295.153 65.716,295.274 65.572,295.274 65.395 C 295.274 65.218,295.476 64.871,295.724 64.623 C 296.270 64.078,296.319 63.510,295.799 63.762 C 295.593 63.862,295.728 63.718,296.099 63.443 C 296.470 63.168,296.774 62.756,296.774 62.529 C 296.774 62.302,296.895 62.116,297.042 62.116 C 297.189 62.116,297.402 61.746,297.516 61.293 C 297.629 60.841,297.816 60.402,297.930 60.318 C 298.339 60.018,299.175 58.528,299.175 58.100 C 299.175 57.860,299.276 57.619,299.400 57.564 C 299.754 57.407,300.675 55.622,300.675 55.092 C 300.675 54.829,300.810 54.614,300.975 54.614 C 301.140 54.614,301.275 54.411,301.275 54.164 C 301.275 53.916,301.404 53.713,301.562 53.713 C 301.719 53.713,301.937 53.241,302.045 52.663 C 302.154 52.086,302.362 51.613,302.509 51.613 C 302.656 51.613,302.776 51.401,302.776 51.141 C 302.776 50.882,302.978 50.467,303.226 50.220 C 303.473 49.972,303.676 49.509,303.676 49.191 C 303.676 48.873,303.789 48.612,303.927 48.612 C 304.469 48.612,305.329 45.342,304.894 44.938 C 304.564 44.631,304.531 44.645,304.717 45.011 C 304.844 45.259,304.597 45.056,304.169 44.561 C 303.742 44.066,303.247 43.526,303.071 43.361 C 302.895 43.196,302.399 42.693,301.971 42.244 C 301.542 41.795,301.075 41.499,300.933 41.586 C 300.791 41.674,300.675 41.558,300.675 41.328 C 300.675 40.925,299.083 39.310,298.687 39.310 C 298.580 39.310,298.181 38.972,297.798 38.560 C 297.416 38.147,296.939 37.809,296.739 37.809 C 296.538 37.809,296.455 37.728,296.554 37.629 C 296.739 37.445,293.191 33.918,292.814 33.912 C 292.698 33.910,291.307 32.622,289.722 31.050 C 288.137 29.478,286.737 28.255,286.611 28.333 C 286.484 28.411,286.187 28.194,285.951 27.851 C 285.715 27.507,285.346 27.076,285.132 26.891 C 284.918 26.707,284.580 26.381,284.382 26.167 C 284.183 25.953,283.853 25.615,283.648 25.417 C 281.672 23.509,281.122 23.098,280.793 23.287 C 280.588 23.406,280.512 23.399,280.625 23.274 C 280.887 22.982,276.075 18.265,275.732 18.477 C 275.591 18.565,275.551 18.438,275.644 18.197 C 275.749 17.925,275.577 17.684,275.190 17.561 C 274.848 17.453,274.569 17.238,274.569 17.084 C 274.569 16.930,274.427 16.804,274.254 16.804 C 274.081 16.804,273.629 16.469,273.249 16.059 C 272.869 15.649,272.471 15.401,272.363 15.509 C 272.256 15.616,272.168 15.509,272.168 15.270 C 272.168 14.653,271.048 13.735,270.860 14.197 C 270.780 14.393,270.704 14.293,270.691 13.975 C 270.665 13.335,268.719 11.403,268.100 11.403 C 267.884 11.403,267.624 11.140,267.522 10.818 C 267.420 10.496,267.073 10.150,266.751 10.048 C 266.430 9.946,266.167 9.746,266.167 9.604 C 266.167 9.326,266.091 9.251,263.750 7.202 C 262.901 6.459,261.270 4.940,260.125 3.826 L 258.044 1.800 254.153 1.800 L 250.263 1.800 250.263 2.551 " stroke="none" fill="#240c84" fill-rule="evenodd"></path><path id="path1" d="M122.060 65.941 C 122.001 66.065,122.046 66.707,122.158 67.367 L 122.363 68.567 122.341 67.142 C 122.319 65.731,122.266 65.505,122.060 65.941 M173.219 82.971 C 173.222 83.631,173.284 83.866,173.356 83.492 C 173.427 83.119,173.425 82.579,173.349 82.292 C 173.274 82.005,173.216 82.311,173.219 82.971 M122.200 141.335 C 122.200 141.913,122.262 142.149,122.337 141.860 C 122.413 141.572,122.413 141.099,122.337 140.810 C 122.262 140.521,122.200 140.758,122.200 141.335 " stroke="none" fill="#240c8c" fill-rule="evenodd"></path><path id="path2" d="" stroke="none" fill="#280c84" fill-rule="evenodd"></path><path id="path3" d="" stroke="none" fill="#280c84" fill-rule="evenodd"></path><path id="path4" d="" stroke="none" fill="#280c84" fill-rule="evenodd"></path></g></svg>